<?xml version="1.0" encoding="UTF-8"?>
<svg xmlns="http://www.w3.org/2000/svg" viewBox="0 0 980 1050" width="800" height="880">
  <defs>
    <filter id="carGlow" x="-20%" y="-20%" width="140%" height="140%">
      <feDropShadow dx="0" dy="4" stdDeviation="6" flood-color="#00D2FF" flood-opacity="0.3" />
    </filter>
  </defs>

  <!-- Fondo Blanco de Alto Contraste para Máxima Lectura en Escaneo -->
  <rect width="980" height="1050" rx="24" fill="#FFFFFF" />

  <!-- Cabecera de Marca -->
  <g transform="translate(490, 36)">
    <text text-anchor="middle" font-family="system-ui, -apple-system, sans-serif" font-weight="900" font-size="18" fill="#04121C" letter-spacing="1.5">
      CAR WASH LA CARPITA
    </text>
  </g>

  <!-- Matriz de Puntos del Código QR -->
  <g transform="translate(0, 10)">
    
    
      <!-- Finder Pattern -->
      <rect x="80" y="80" width="140" height="140" rx="24" fill="#00D2FF" />
      <rect x="100" y="100" width="100" height="100" rx="20" fill="#FFFFFF" />
      <rect x="120" y="120" width="60" height="60" rx="16" fill="#04121C" />
      <circle cx="150" cy="150" r="16" fill="#00D2FF" />
    
    
      <!-- Finder Pattern -->
      <rect x="760" y="80" width="140" height="140" rx="24" fill="#00D2FF" />
      <rect x="780" y="100" width="100" height="100" rx="20" fill="#FFFFFF" />
      <rect x="800" y="120" width="60" height="60" rx="16" fill="#04121C" />
      <circle cx="830" cy="150" r="16" fill="#00D2FF" />
    
    
      <!-- Finder Pattern -->
      <rect x="80" y="760" width="140" height="140" rx="24" fill="#00D2FF" />
      <rect x="100" y="780" width="100" height="100" rx="20" fill="#FFFFFF" />
      <rect x="120" y="800" width="60" height="60" rx="16" fill="#04121C" />
      <circle cx="150" cy="830" r="16" fill="#00D2FF" />
    
  
    <circle cx="250" cy="90" r="8.4" fill="#071520" />
<circle cx="270" cy="90" r="8.4" fill="#071520" />
<circle cx="330" cy="90" r="8.4" fill="#071520" />
<circle cx="370" cy="90" r="8.4" fill="#071520" />
<circle cx="470" cy="90" r="8.4" fill="#071520" />
<circle cx="490" cy="90" r="8.4" fill="#071520" />
<circle cx="530" cy="90" r="8.4" fill="#071520" />
<circle cx="550" cy="90" r="8.4" fill="#071520" />
<circle cx="570" cy="90" r="8.4" fill="#071520" />
<circle cx="590" cy="90" r="8.4" fill="#071520" />
<circle cx="610" cy="90" r="8.4" fill="#071520" />
<circle cx="630" cy="90" r="8.4" fill="#071520" />
<circle cx="690" cy="90" r="8.4" fill="#071520" />
<circle cx="710" cy="90" r="8.4" fill="#071520" />
<circle cx="730" cy="90" r="8.4" fill="#071520" />
<circle cx="270" cy="110" r="8.4" fill="#071520" />
<circle cx="310" cy="110" r="8.4" fill="#071520" />
<circle cx="330" cy="110" r="8.4" fill="#071520" />
<circle cx="350" cy="110" r="8.4" fill="#071520" />
<circle cx="390" cy="110" r="8.4" fill="#071520" />
<circle cx="410" cy="110" r="8.4" fill="#071520" />
<circle cx="530" cy="110" r="8.4" fill="#071520" />
<circle cx="550" cy="110" r="8.4" fill="#071520" />
<circle cx="570" cy="110" r="8.4" fill="#071520" />
<circle cx="610" cy="110" r="8.4" fill="#071520" />
<circle cx="630" cy="110" r="8.4" fill="#071520" />
<circle cx="650" cy="110" r="8.4" fill="#071520" />
<circle cx="670" cy="110" r="8.4" fill="#071520" />
<circle cx="710" cy="110" r="8.4" fill="#071520" />
<circle cx="290" cy="130" r="8.4" fill="#071520" />
<circle cx="330" cy="130" r="8.4" fill="#071520" />
<circle cx="350" cy="130" r="8.4" fill="#071520" />
<circle cx="430" cy="130" r="8.4" fill="#071520" />
<circle cx="450" cy="130" r="8.4" fill="#071520" />
<circle cx="530" cy="130" r="8.4" fill="#071520" />
<circle cx="550" cy="130" r="8.4" fill="#071520" />
<circle cx="590" cy="130" r="8.4" fill="#071520" />
<circle cx="610" cy="130" r="8.4" fill="#071520" />
<circle cx="730" cy="130" r="8.4" fill="#071520" />
<circle cx="250" cy="150" r="8.4" fill="#071520" />
<circle cx="270" cy="150" r="8.4" fill="#071520" />
<circle cx="310" cy="150" r="8.4" fill="#071520" />
<circle cx="330" cy="150" r="8.4" fill="#071520" />
<circle cx="350" cy="150" r="8.4" fill="#071520" />
<circle cx="430" cy="150" r="8.4" fill="#071520" />
<circle cx="470" cy="150" r="8.4" fill="#071520" />
<circle cx="530" cy="150" r="8.4" fill="#071520" />
<circle cx="550" cy="150" r="8.4" fill="#071520" />
<circle cx="590" cy="150" r="8.4" fill="#071520" />
<circle cx="610" cy="150" r="8.4" fill="#071520" />
<circle cx="630" cy="150" r="8.4" fill="#071520" />
<circle cx="650" cy="150" r="8.4" fill="#071520" />
<circle cx="670" cy="150" r="8.4" fill="#071520" />
<circle cx="710" cy="150" r="8.4" fill="#071520" />
<circle cx="730" cy="150" r="8.4" fill="#071520" />
<circle cx="270" cy="170" r="8.4" fill="#071520" />
<circle cx="330" cy="170" r="8.4" fill="#071520" />
<circle cx="370" cy="170" r="8.4" fill="#071520" />
<circle cx="450" cy="170" r="8.4" fill="#00D2FF" />
<circle cx="470" cy="170" r="8.4" fill="#00D2FF" />
<circle cx="490" cy="170" r="8.4" fill="#00D2FF" />
<circle cx="570" cy="170" r="8.4" fill="#00D2FF" />
<circle cx="590" cy="170" r="8.4" fill="#00D2FF" />
<circle cx="610" cy="170" r="8.4" fill="#071520" />
<circle cx="630" cy="170" r="8.4" fill="#071520" />
<circle cx="710" cy="170" r="8.4" fill="#071520" />
<circle cx="270" cy="190" r="8.4" fill="#071520" />
<circle cx="330" cy="190" r="8.4" fill="#071520" />
<circle cx="350" cy="190" r="8.4" fill="#00D2FF" />
<circle cx="370" cy="190" r="8.4" fill="#00D2FF" />
<circle cx="390" cy="190" r="8.4" fill="#00D2FF" />
<circle cx="410" cy="190" r="8.4" fill="#00D2FF" />
<circle cx="530" cy="190" r="8.4" fill="#00D2FF" />
<circle cx="570" cy="190" r="8.4" fill="#00D2FF" />
<circle cx="590" cy="190" r="8.4" fill="#00D2FF" />
<circle cx="630" cy="190" r="8.4" fill="#00D2FF" />
<circle cx="710" cy="190" r="8.4" fill="#071520" />
<circle cx="250" cy="210" r="8.4" fill="#071520" />
<circle cx="290" cy="210" r="8.4" fill="#071520" />
<circle cx="330" cy="210" r="8.4" fill="#00D2FF" />
<circle cx="370" cy="210" r="8.4" fill="#00D2FF" />
<circle cx="410" cy="210" r="8.4" fill="#00D2FF" />
<circle cx="450" cy="210" r="8.4" fill="#00D2FF" />
<circle cx="490" cy="210" r="8.4" fill="#00D2FF" />
<circle cx="530" cy="210" r="8.4" fill="#00D2FF" />
<circle cx="570" cy="210" r="8.4" fill="#00D2FF" />
<circle cx="610" cy="210" r="8.4" fill="#00D2FF" />
<circle cx="650" cy="210" r="8.4" fill="#00D2FF" />
<circle cx="690" cy="210" r="8.4" fill="#071520" />
<circle cx="730" cy="210" r="8.4" fill="#071520" />
<circle cx="330" cy="230" r="8.4" fill="#00D2FF" />
<circle cx="350" cy="230" r="8.4" fill="#00D2FF" />
<circle cx="370" cy="230" r="8.4" fill="#00D2FF" />
<circle cx="410" cy="230" r="8.4" fill="#00D2FF" />
<circle cx="430" cy="230" r="8.4" fill="#00D2FF" />
<circle cx="450" cy="230" r="8.4" fill="#00D2FF" />
<circle cx="470" cy="230" r="8.4" fill="#00D2FF" />
<circle cx="490" cy="230" r="8.4" fill="#00D2FF" />
<circle cx="530" cy="230" r="8.4" fill="#00D2FF" />
<circle cx="550" cy="230" r="8.4" fill="#00D2FF" />
<circle cx="610" cy="230" r="8.4" fill="#00D2FF" />
<circle cx="650" cy="230" r="8.4" fill="#00D2FF" />
<circle cx="670" cy="230" r="8.4" fill="#00D2FF" />
<circle cx="690" cy="230" r="8.4" fill="#00D2FF" />
<circle cx="130" cy="250" r="8.4" fill="#071520" />
<circle cx="170" cy="250" r="8.4" fill="#071520" />
<circle cx="190" cy="250" r="8.4" fill="#071520" />
<circle cx="210" cy="250" r="8.4" fill="#071520" />
<circle cx="250" cy="250" r="8.4" fill="#071520" />
<circle cx="270" cy="250" r="8.4" fill="#00D2FF" />
<circle cx="310" cy="250" r="8.4" fill="#00D2FF" />
<circle cx="330" cy="250" r="8.4" fill="#00D2FF" />
<circle cx="350" cy="250" r="8.4" fill="#00D2FF" />
<circle cx="390" cy="250" r="8.4" fill="#00D2FF" />
<circle cx="450" cy="250" r="8.4" fill="#00D2FF" />
<circle cx="470" cy="250" r="8.4" fill="#00D2FF" />
<circle cx="490" cy="250" r="8.4" fill="#00D2FF" />
<circle cx="530" cy="250" r="8.4" fill="#00D2FF" />
<circle cx="610" cy="250" r="8.4" fill="#00D2FF" />
<circle cx="630" cy="250" r="8.4" fill="#00D2FF" />
<circle cx="650" cy="250" r="8.4" fill="#00D2FF" />
<circle cx="670" cy="250" r="8.4" fill="#00D2FF" />
<circle cx="730" cy="250" r="8.4" fill="#00D2FF" />
<circle cx="750" cy="250" r="8.4" fill="#071520" />
<circle cx="830" cy="250" r="8.4" fill="#071520" />
<circle cx="890" cy="250" r="8.4" fill="#071520" />
<circle cx="90" cy="270" r="8.4" fill="#071520" />
<circle cx="110" cy="270" r="8.4" fill="#071520" />
<circle cx="150" cy="270" r="8.4" fill="#071520" />
<circle cx="170" cy="270" r="8.4" fill="#071520" />
<circle cx="190" cy="270" r="8.4" fill="#071520" />
<circle cx="230" cy="270" r="8.4" fill="#071520" />
<circle cx="250" cy="270" r="8.4" fill="#00D2FF" />
<circle cx="270" cy="270" r="8.4" fill="#00D2FF" />
<circle cx="290" cy="270" r="8.4" fill="#00D2FF" />
<circle cx="330" cy="270" r="8.4" fill="#00D2FF" />
<circle cx="350" cy="270" r="8.4" fill="#00D2FF" />
<circle cx="370" cy="270" r="8.4" fill="#00D2FF" />
<circle cx="410" cy="270" r="8.4" fill="#00D2FF" />
<circle cx="430" cy="270" r="8.4" fill="#00D2FF" />
<circle cx="490" cy="270" r="8.4" fill="#00D2FF" />
<circle cx="510" cy="270" r="8.4" fill="#00D2FF" />
<circle cx="650" cy="270" r="8.4" fill="#00D2FF" />
<circle cx="670" cy="270" r="8.4" fill="#00D2FF" />
<circle cx="730" cy="270" r="8.4" fill="#00D2FF" />
<circle cx="750" cy="270" r="8.4" fill="#00D2FF" />
<circle cx="770" cy="270" r="8.4" fill="#071520" />
<circle cx="790" cy="270" r="8.4" fill="#071520" />
<circle cx="830" cy="270" r="8.4" fill="#071520" />
<circle cx="850" cy="270" r="8.4" fill="#071520" />
<circle cx="870" cy="270" r="8.4" fill="#071520" />
<circle cx="890" cy="270" r="8.4" fill="#071520" />
<circle cx="110" cy="290" r="8.4" fill="#071520" />
<circle cx="210" cy="290" r="8.4" fill="#071520" />
<circle cx="230" cy="290" r="8.4" fill="#00D2FF" />
<circle cx="250" cy="290" r="8.4" fill="#00D2FF" />
<circle cx="270" cy="290" r="8.4" fill="#00D2FF" />
<circle cx="350" cy="290" r="8.4" fill="#00D2FF" />
<circle cx="370" cy="290" r="8.4" fill="#00D2FF" />
<circle cx="410" cy="290" r="8.4" fill="#00D2FF" />
<circle cx="450" cy="290" r="8.4" fill="#00D2FF" />
<circle cx="470" cy="290" r="8.4" fill="#00D2FF" />
<circle cx="510" cy="290" r="8.4" fill="#00D2FF" />
<circle cx="610" cy="290" r="8.4" fill="#00D2FF" />
<circle cx="690" cy="290" r="8.4" fill="#00D2FF" />
<circle cx="770" cy="290" r="8.4" fill="#00D2FF" />
<circle cx="810" cy="290" r="8.4" fill="#071520" />
<circle cx="850" cy="290" r="8.4" fill="#071520" />
<circle cx="870" cy="290" r="8.4" fill="#071520" />
<circle cx="890" cy="290" r="8.4" fill="#071520" />
<circle cx="130" cy="310" r="8.4" fill="#071520" />
<circle cx="150" cy="310" r="8.4" fill="#071520" />
<circle cx="170" cy="310" r="8.4" fill="#071520" />
<circle cx="190" cy="310" r="8.4" fill="#071520" />
<circle cx="310" cy="310" r="8.4" fill="#00D2FF" />
<circle cx="330" cy="310" r="8.4" fill="#00D2FF" />
<circle cx="350" cy="310" r="8.4" fill="#00D2FF" />
<circle cx="410" cy="310" r="8.4" fill="#00D2FF" />
<circle cx="470" cy="310" r="8.4" fill="#00D2FF" />
<circle cx="590" cy="310" r="8.4" fill="#00D2FF" />
<circle cx="650" cy="310" r="8.4" fill="#00D2FF" />
<circle cx="670" cy="310" r="8.4" fill="#00D2FF" />
<circle cx="730" cy="310" r="8.4" fill="#00D2FF" />
<circle cx="810" cy="310" r="8.4" fill="#071520" />
<circle cx="870" cy="310" r="8.4" fill="#071520" />
<circle cx="130" cy="330" r="8.4" fill="#071520" />
<circle cx="150" cy="330" r="8.4" fill="#071520" />
<circle cx="190" cy="330" r="8.4" fill="#071520" />
<circle cx="210" cy="330" r="8.4" fill="#00D2FF" />
<circle cx="250" cy="330" r="8.4" fill="#00D2FF" />
<circle cx="270" cy="330" r="8.4" fill="#00D2FF" />
<circle cx="350" cy="330" r="8.4" fill="#00D2FF" />
<circle cx="370" cy="330" r="8.4" fill="#00D2FF" />
<circle cx="390" cy="330" r="8.4" fill="#00D2FF" />
<circle cx="410" cy="330" r="8.4" fill="#00D2FF" />
<circle cx="450" cy="330" r="8.4" fill="#00D2FF" />
<circle cx="470" cy="330" r="8.4" fill="#00D2FF" />
<circle cx="490" cy="330" r="8.4" fill="#00D2FF" />
<circle cx="510" cy="330" r="8.4" fill="#00D2FF" />
<circle cx="590" cy="330" r="8.4" fill="#00D2FF" />
<circle cx="610" cy="330" r="8.4" fill="#00D2FF" />
<circle cx="670" cy="330" r="8.4" fill="#00D2FF" />
<circle cx="710" cy="330" r="8.4" fill="#00D2FF" />
<circle cx="730" cy="330" r="8.4" fill="#00D2FF" />
<circle cx="770" cy="330" r="8.4" fill="#00D2FF" />
<circle cx="830" cy="330" r="8.4" fill="#071520" />
<circle cx="870" cy="330" r="8.4" fill="#071520" />
<circle cx="890" cy="330" r="8.4" fill="#071520" />
<circle cx="150" cy="350" r="8.4" fill="#071520" />
<circle cx="170" cy="350" r="8.4" fill="#071520" />
<circle cx="190" cy="350" r="8.4" fill="#00D2FF" />
<circle cx="230" cy="350" r="8.4" fill="#00D2FF" />
<circle cx="790" cy="350" r="8.4" fill="#00D2FF" />
<circle cx="830" cy="350" r="8.4" fill="#071520" />
<circle cx="850" cy="350" r="8.4" fill="#071520" />
<circle cx="890" cy="350" r="8.4" fill="#071520" />
<circle cx="150" cy="370" r="8.4" fill="#071520" />
<circle cx="170" cy="370" r="8.4" fill="#071520" />
<circle cx="210" cy="370" r="8.4" fill="#00D2FF" />
<circle cx="770" cy="370" r="8.4" fill="#00D2FF" />
<circle cx="790" cy="370" r="8.4" fill="#00D2FF" />
<circle cx="810" cy="370" r="8.4" fill="#00D2FF" />
<circle cx="850" cy="370" r="8.4" fill="#071520" />
<circle cx="870" cy="370" r="8.4" fill="#071520" />
<circle cx="890" cy="370" r="8.4" fill="#071520" />
<circle cx="110" cy="390" r="8.4" fill="#071520" />
<circle cx="130" cy="390" r="8.4" fill="#071520" />
<circle cx="150" cy="390" r="8.4" fill="#071520" />
<circle cx="770" cy="390" r="8.4" fill="#00D2FF" />
<circle cx="790" cy="390" r="8.4" fill="#00D2FF" />
<circle cx="830" cy="390" r="8.4" fill="#071520" />
<circle cx="90" cy="410" r="8.4" fill="#071520" />
<circle cx="110" cy="410" r="8.4" fill="#071520" />
<circle cx="130" cy="410" r="8.4" fill="#071520" />
<circle cx="190" cy="410" r="8.4" fill="#00D2FF" />
<circle cx="210" cy="410" r="8.4" fill="#00D2FF" />
<circle cx="770" cy="410" r="8.4" fill="#00D2FF" />
<circle cx="790" cy="410" r="8.4" fill="#00D2FF" />
<circle cx="870" cy="410" r="8.4" fill="#071520" />
<circle cx="890" cy="410" r="8.4" fill="#071520" />
<circle cx="130" cy="430" r="8.4" fill="#071520" />
<circle cx="150" cy="430" r="8.4" fill="#071520" />
<circle cx="230" cy="430" r="8.4" fill="#00D2FF" />
<circle cx="770" cy="430" r="8.4" fill="#00D2FF" />
<circle cx="830" cy="430" r="8.4" fill="#00D2FF" />
<circle cx="870" cy="430" r="8.4" fill="#071520" />
<circle cx="890" cy="430" r="8.4" fill="#071520" />
<circle cx="90" cy="450" r="8.4" fill="#071520" />
<circle cx="150" cy="450" r="8.4" fill="#071520" />
<circle cx="170" cy="450" r="8.4" fill="#00D2FF" />
<circle cx="210" cy="450" r="8.4" fill="#00D2FF" />
<circle cx="230" cy="450" r="8.4" fill="#00D2FF" />
<circle cx="750" cy="450" r="8.4" fill="#00D2FF" />
<circle cx="810" cy="450" r="8.4" fill="#00D2FF" />
<circle cx="870" cy="450" r="8.4" fill="#071520" />
<circle cx="890" cy="450" r="8.4" fill="#071520" />
<circle cx="130" cy="470" r="8.4" fill="#071520" />
<circle cx="150" cy="470" r="8.4" fill="#071520" />
<circle cx="170" cy="470" r="8.4" fill="#00D2FF" />
<circle cx="790" cy="470" r="8.4" fill="#00D2FF" />
<circle cx="890" cy="470" r="8.4" fill="#071520" />
<circle cx="110" cy="490" r="8.4" fill="#071520" />
<circle cx="130" cy="490" r="8.4" fill="#071520" />
<circle cx="190" cy="490" r="8.4" fill="#00D2FF" />
<circle cx="210" cy="490" r="8.4" fill="#00D2FF" />
<circle cx="750" cy="490" r="8.4" fill="#00D2FF" />
<circle cx="770" cy="490" r="8.4" fill="#00D2FF" />
<circle cx="810" cy="490" r="8.4" fill="#00D2FF" />
<circle cx="890" cy="490" r="8.4" fill="#071520" />
<circle cx="150" cy="510" r="8.4" fill="#071520" />
<circle cx="170" cy="510" r="8.4" fill="#00D2FF" />
<circle cx="190" cy="510" r="8.4" fill="#00D2FF" />
<circle cx="230" cy="510" r="8.4" fill="#00D2FF" />
<circle cx="750" cy="510" r="8.4" fill="#00D2FF" />
<circle cx="770" cy="510" r="8.4" fill="#00D2FF" />
<circle cx="810" cy="510" r="8.4" fill="#00D2FF" />
<circle cx="870" cy="510" r="8.4" fill="#071520" />
<circle cx="890" cy="510" r="8.4" fill="#071520" />
<circle cx="90" cy="530" r="8.4" fill="#071520" />
<circle cx="130" cy="530" r="8.4" fill="#071520" />
<circle cx="190" cy="530" r="8.4" fill="#00D2FF" />
<circle cx="210" cy="530" r="8.4" fill="#00D2FF" />
<circle cx="230" cy="530" r="8.4" fill="#00D2FF" />
<circle cx="750" cy="530" r="8.4" fill="#00D2FF" />
<circle cx="830" cy="530" r="8.4" fill="#00D2FF" />
<circle cx="850" cy="530" r="8.4" fill="#071520" />
<circle cx="870" cy="530" r="8.4" fill="#071520" />
<circle cx="890" cy="530" r="8.4" fill="#071520" />
<circle cx="150" cy="550" r="8.4" fill="#071520" />
<circle cx="750" cy="550" r="8.4" fill="#00D2FF" />
<circle cx="770" cy="550" r="8.4" fill="#00D2FF" />
<circle cx="810" cy="550" r="8.4" fill="#00D2FF" />
<circle cx="890" cy="550" r="8.4" fill="#071520" />
<circle cx="130" cy="570" r="8.4" fill="#071520" />
<circle cx="150" cy="570" r="8.4" fill="#071520" />
<circle cx="210" cy="570" r="8.4" fill="#00D2FF" />
<circle cx="230" cy="570" r="8.4" fill="#00D2FF" />
<circle cx="750" cy="570" r="8.4" fill="#00D2FF" />
<circle cx="770" cy="570" r="8.4" fill="#00D2FF" />
<circle cx="830" cy="570" r="8.4" fill="#00D2FF" />
<circle cx="870" cy="570" r="8.4" fill="#071520" />
<circle cx="110" cy="590" r="8.4" fill="#071520" />
<circle cx="150" cy="590" r="8.4" fill="#071520" />
<circle cx="190" cy="590" r="8.4" fill="#00D2FF" />
<circle cx="750" cy="590" r="8.4" fill="#00D2FF" />
<circle cx="770" cy="590" r="8.4" fill="#00D2FF" />
<circle cx="890" cy="590" r="8.4" fill="#071520" />
<circle cx="90" cy="610" r="8.4" fill="#071520" />
<circle cx="110" cy="610" r="8.4" fill="#071520" />
<circle cx="150" cy="610" r="8.4" fill="#071520" />
<circle cx="170" cy="610" r="8.4" fill="#071520" />
<circle cx="190" cy="610" r="8.4" fill="#00D2FF" />
<circle cx="210" cy="610" r="8.4" fill="#00D2FF" />
<circle cx="750" cy="610" r="8.4" fill="#00D2FF" />
<circle cx="790" cy="610" r="8.4" fill="#00D2FF" />
<circle cx="810" cy="610" r="8.4" fill="#00D2FF" />
<circle cx="850" cy="610" r="8.4" fill="#071520" />
<circle cx="870" cy="610" r="8.4" fill="#071520" />
<circle cx="890" cy="610" r="8.4" fill="#071520" />
<circle cx="230" cy="630" r="8.4" fill="#00D2FF" />
<circle cx="750" cy="630" r="8.4" fill="#00D2FF" />
<circle cx="770" cy="630" r="8.4" fill="#00D2FF" />
<circle cx="110" cy="650" r="8.4" fill="#071520" />
<circle cx="170" cy="650" r="8.4" fill="#071520" />
<circle cx="190" cy="650" r="8.4" fill="#00D2FF" />
<circle cx="210" cy="650" r="8.4" fill="#00D2FF" />
<circle cx="250" cy="650" r="8.4" fill="#00D2FF" />
<circle cx="290" cy="650" r="8.4" fill="#00D2FF" />
<circle cx="310" cy="650" r="8.4" fill="#00D2FF" />
<circle cx="330" cy="650" r="8.4" fill="#00D2FF" />
<circle cx="370" cy="650" r="8.4" fill="#00D2FF" />
<circle cx="390" cy="650" r="8.4" fill="#00D2FF" />
<circle cx="410" cy="650" r="8.4" fill="#00D2FF" />
<circle cx="430" cy="650" r="8.4" fill="#00D2FF" />
<circle cx="470" cy="650" r="8.4" fill="#00D2FF" />
<circle cx="490" cy="650" r="8.4" fill="#00D2FF" />
<circle cx="530" cy="650" r="8.4" fill="#00D2FF" />
<circle cx="610" cy="650" r="8.4" fill="#00D2FF" />
<circle cx="630" cy="650" r="8.4" fill="#00D2FF" />
<circle cx="650" cy="650" r="8.4" fill="#00D2FF" />
<circle cx="670" cy="650" r="8.4" fill="#00D2FF" />
<circle cx="710" cy="650" r="8.4" fill="#00D2FF" />
<circle cx="750" cy="650" r="8.4" fill="#00D2FF" />
<circle cx="830" cy="650" r="8.4" fill="#071520" />
<circle cx="870" cy="650" r="8.4" fill="#071520" />
<circle cx="890" cy="650" r="8.4" fill="#071520" />
<circle cx="110" cy="670" r="8.4" fill="#071520" />
<circle cx="170" cy="670" r="8.4" fill="#071520" />
<circle cx="190" cy="670" r="8.4" fill="#071520" />
<circle cx="230" cy="670" r="8.4" fill="#00D2FF" />
<circle cx="250" cy="670" r="8.4" fill="#00D2FF" />
<circle cx="270" cy="670" r="8.4" fill="#00D2FF" />
<circle cx="310" cy="670" r="8.4" fill="#00D2FF" />
<circle cx="330" cy="670" r="8.4" fill="#00D2FF" />
<circle cx="350" cy="670" r="8.4" fill="#00D2FF" />
<circle cx="370" cy="670" r="8.4" fill="#00D2FF" />
<circle cx="390" cy="670" r="8.4" fill="#00D2FF" />
<circle cx="410" cy="670" r="8.4" fill="#00D2FF" />
<circle cx="450" cy="670" r="8.4" fill="#00D2FF" />
<circle cx="470" cy="670" r="8.4" fill="#00D2FF" />
<circle cx="490" cy="670" r="8.4" fill="#00D2FF" />
<circle cx="530" cy="670" r="8.4" fill="#00D2FF" />
<circle cx="590" cy="670" r="8.4" fill="#00D2FF" />
<circle cx="630" cy="670" r="8.4" fill="#00D2FF" />
<circle cx="650" cy="670" r="8.4" fill="#00D2FF" />
<circle cx="670" cy="670" r="8.4" fill="#00D2FF" />
<circle cx="690" cy="670" r="8.4" fill="#00D2FF" />
<circle cx="710" cy="670" r="8.4" fill="#00D2FF" />
<circle cx="750" cy="670" r="8.4" fill="#00D2FF" />
<circle cx="850" cy="670" r="8.4" fill="#071520" />
<circle cx="870" cy="670" r="8.4" fill="#071520" />
<circle cx="890" cy="670" r="8.4" fill="#071520" />
<circle cx="90" cy="690" r="8.4" fill="#071520" />
<circle cx="150" cy="690" r="8.4" fill="#071520" />
<circle cx="170" cy="690" r="8.4" fill="#071520" />
<circle cx="190" cy="690" r="8.4" fill="#071520" />
<circle cx="210" cy="690" r="8.4" fill="#071520" />
<circle cx="310" cy="690" r="8.4" fill="#00D2FF" />
<circle cx="330" cy="690" r="8.4" fill="#00D2FF" />
<circle cx="370" cy="690" r="8.4" fill="#00D2FF" />
<circle cx="390" cy="690" r="8.4" fill="#00D2FF" />
<circle cx="410" cy="690" r="8.4" fill="#00D2FF" />
<circle cx="470" cy="690" r="8.4" fill="#00D2FF" />
<circle cx="530" cy="690" r="8.4" fill="#00D2FF" />
<circle cx="570" cy="690" r="8.4" fill="#00D2FF" />
<circle cx="630" cy="690" r="8.4" fill="#00D2FF" />
<circle cx="650" cy="690" r="8.4" fill="#00D2FF" />
<circle cx="690" cy="690" r="8.4" fill="#00D2FF" />
<circle cx="810" cy="690" r="8.4" fill="#071520" />
<circle cx="830" cy="690" r="8.4" fill="#071520" />
<circle cx="850" cy="690" r="8.4" fill="#071520" />
<circle cx="870" cy="690" r="8.4" fill="#071520" />
<circle cx="890" cy="690" r="8.4" fill="#071520" />
<circle cx="110" cy="710" r="8.4" fill="#071520" />
<circle cx="130" cy="710" r="8.4" fill="#071520" />
<circle cx="150" cy="710" r="8.4" fill="#071520" />
<circle cx="170" cy="710" r="8.4" fill="#071520" />
<circle cx="190" cy="710" r="8.4" fill="#071520" />
<circle cx="230" cy="710" r="8.4" fill="#00D2FF" />
<circle cx="250" cy="710" r="8.4" fill="#00D2FF" />
<circle cx="290" cy="710" r="8.4" fill="#00D2FF" />
<circle cx="330" cy="710" r="8.4" fill="#00D2FF" />
<circle cx="370" cy="710" r="8.4" fill="#00D2FF" />
<circle cx="390" cy="710" r="8.4" fill="#00D2FF" />
<circle cx="430" cy="710" r="8.4" fill="#00D2FF" />
<circle cx="450" cy="710" r="8.4" fill="#00D2FF" />
<circle cx="470" cy="710" r="8.4" fill="#00D2FF" />
<circle cx="490" cy="710" r="8.4" fill="#00D2FF" />
<circle cx="510" cy="710" r="8.4" fill="#00D2FF" />
<circle cx="530" cy="710" r="8.4" fill="#00D2FF" />
<circle cx="550" cy="710" r="8.4" fill="#00D2FF" />
<circle cx="590" cy="710" r="8.4" fill="#00D2FF" />
<circle cx="650" cy="710" r="8.4" fill="#00D2FF" />
<circle cx="670" cy="710" r="8.4" fill="#00D2FF" />
<circle cx="710" cy="710" r="8.4" fill="#00D2FF" />
<circle cx="750" cy="710" r="8.4" fill="#00D2FF" />
<circle cx="770" cy="710" r="8.4" fill="#00D2FF" />
<circle cx="810" cy="710" r="8.4" fill="#071520" />
<circle cx="870" cy="710" r="8.4" fill="#071520" />
<circle cx="890" cy="710" r="8.4" fill="#071520" />
<circle cx="90" cy="730" r="8.4" fill="#071520" />
<circle cx="130" cy="730" r="8.4" fill="#071520" />
<circle cx="170" cy="730" r="8.4" fill="#071520" />
<circle cx="210" cy="730" r="8.4" fill="#071520" />
<circle cx="270" cy="730" r="8.4" fill="#00D2FF" />
<circle cx="330" cy="730" r="8.4" fill="#00D2FF" />
<circle cx="390" cy="730" r="8.4" fill="#00D2FF" />
<circle cx="410" cy="730" r="8.4" fill="#00D2FF" />
<circle cx="470" cy="730" r="8.4" fill="#00D2FF" />
<circle cx="510" cy="730" r="8.4" fill="#00D2FF" />
<circle cx="530" cy="730" r="8.4" fill="#00D2FF" />
<circle cx="590" cy="730" r="8.4" fill="#00D2FF" />
<circle cx="630" cy="730" r="8.4" fill="#00D2FF" />
<circle cx="670" cy="730" r="8.4" fill="#00D2FF" />
<circle cx="730" cy="730" r="8.4" fill="#00D2FF" />
<circle cx="750" cy="730" r="8.4" fill="#00D2FF" />
<circle cx="770" cy="730" r="8.4" fill="#071520" />
<circle cx="790" cy="730" r="8.4" fill="#071520" />
<circle cx="810" cy="730" r="8.4" fill="#071520" />
<circle cx="870" cy="730" r="8.4" fill="#071520" />
<circle cx="890" cy="730" r="8.4" fill="#071520" />
<circle cx="250" cy="750" r="8.4" fill="#071520" />
<circle cx="310" cy="750" r="8.4" fill="#00D2FF" />
<circle cx="330" cy="750" r="8.4" fill="#00D2FF" />
<circle cx="350" cy="750" r="8.4" fill="#00D2FF" />
<circle cx="370" cy="750" r="8.4" fill="#00D2FF" />
<circle cx="390" cy="750" r="8.4" fill="#00D2FF" />
<circle cx="430" cy="750" r="8.4" fill="#00D2FF" />
<circle cx="610" cy="750" r="8.4" fill="#00D2FF" />
<circle cx="650" cy="750" r="8.4" fill="#00D2FF" />
<circle cx="670" cy="750" r="8.4" fill="#00D2FF" />
<circle cx="730" cy="750" r="8.4" fill="#00D2FF" />
<circle cx="810" cy="750" r="8.4" fill="#071520" />
<circle cx="830" cy="750" r="8.4" fill="#071520" />
<circle cx="890" cy="750" r="8.4" fill="#071520" />
<circle cx="330" cy="770" r="8.4" fill="#00D2FF" />
<circle cx="350" cy="770" r="8.4" fill="#00D2FF" />
<circle cx="390" cy="770" r="8.4" fill="#00D2FF" />
<circle cx="410" cy="770" r="8.4" fill="#00D2FF" />
<circle cx="430" cy="770" r="8.4" fill="#00D2FF" />
<circle cx="470" cy="770" r="8.4" fill="#00D2FF" />
<circle cx="490" cy="770" r="8.4" fill="#00D2FF" />
<circle cx="530" cy="770" r="8.4" fill="#00D2FF" />
<circle cx="610" cy="770" r="8.4" fill="#00D2FF" />
<circle cx="690" cy="770" r="8.4" fill="#00D2FF" />
<circle cx="710" cy="770" r="8.4" fill="#00D2FF" />
<circle cx="730" cy="770" r="8.4" fill="#071520" />
<circle cx="770" cy="770" r="8.4" fill="#071520" />
<circle cx="810" cy="770" r="8.4" fill="#071520" />
<circle cx="830" cy="770" r="8.4" fill="#071520" />
<circle cx="870" cy="770" r="8.4" fill="#071520" />
<circle cx="890" cy="770" r="8.4" fill="#071520" />
<circle cx="250" cy="790" r="8.4" fill="#071520" />
<circle cx="290" cy="790" r="8.4" fill="#071520" />
<circle cx="310" cy="790" r="8.4" fill="#071520" />
<circle cx="390" cy="790" r="8.4" fill="#00D2FF" />
<circle cx="430" cy="790" r="8.4" fill="#00D2FF" />
<circle cx="470" cy="790" r="8.4" fill="#00D2FF" />
<circle cx="510" cy="790" r="8.4" fill="#00D2FF" />
<circle cx="590" cy="790" r="8.4" fill="#00D2FF" />
<circle cx="630" cy="790" r="8.4" fill="#00D2FF" />
<circle cx="670" cy="790" r="8.4" fill="#00D2FF" />
<circle cx="690" cy="790" r="8.4" fill="#071520" />
<circle cx="730" cy="790" r="8.4" fill="#071520" />
<circle cx="810" cy="790" r="8.4" fill="#071520" />
<circle cx="250" cy="810" r="8.4" fill="#071520" />
<circle cx="310" cy="810" r="8.4" fill="#071520" />
<circle cx="350" cy="810" r="8.4" fill="#00D2FF" />
<circle cx="450" cy="810" r="8.4" fill="#00D2FF" />
<circle cx="490" cy="810" r="8.4" fill="#00D2FF" />
<circle cx="510" cy="810" r="8.4" fill="#00D2FF" />
<circle cx="550" cy="810" r="8.4" fill="#00D2FF" />
<circle cx="570" cy="810" r="8.4" fill="#00D2FF" />
<circle cx="590" cy="810" r="8.4" fill="#00D2FF" />
<circle cx="650" cy="810" r="8.4" fill="#00D2FF" />
<circle cx="690" cy="810" r="8.4" fill="#071520" />
<circle cx="730" cy="810" r="8.4" fill="#071520" />
<circle cx="750" cy="810" r="8.4" fill="#071520" />
<circle cx="770" cy="810" r="8.4" fill="#071520" />
<circle cx="790" cy="810" r="8.4" fill="#071520" />
<circle cx="810" cy="810" r="8.4" fill="#071520" />
<circle cx="890" cy="810" r="8.4" fill="#071520" />
<circle cx="310" cy="830" r="8.4" fill="#071520" />
<circle cx="330" cy="830" r="8.4" fill="#071520" />
<circle cx="350" cy="830" r="8.4" fill="#071520" />
<circle cx="370" cy="830" r="8.4" fill="#071520" />
<circle cx="430" cy="830" r="8.4" fill="#00D2FF" />
<circle cx="450" cy="830" r="8.4" fill="#00D2FF" />
<circle cx="510" cy="830" r="8.4" fill="#00D2FF" />
<circle cx="530" cy="830" r="8.4" fill="#00D2FF" />
<circle cx="570" cy="830" r="8.4" fill="#00D2FF" />
<circle cx="650" cy="830" r="8.4" fill="#071520" />
<circle cx="670" cy="830" r="8.4" fill="#071520" />
<circle cx="690" cy="830" r="8.4" fill="#071520" />
<circle cx="750" cy="830" r="8.4" fill="#071520" />
<circle cx="810" cy="830" r="8.4" fill="#071520" />
<circle cx="830" cy="830" r="8.4" fill="#071520" />
<circle cx="870" cy="830" r="8.4" fill="#071520" />
<circle cx="890" cy="830" r="8.4" fill="#071520" />
<circle cx="250" cy="850" r="8.4" fill="#071520" />
<circle cx="270" cy="850" r="8.4" fill="#071520" />
<circle cx="350" cy="850" r="8.4" fill="#071520" />
<circle cx="370" cy="850" r="8.4" fill="#071520" />
<circle cx="390" cy="850" r="8.4" fill="#071520" />
<circle cx="410" cy="850" r="8.4" fill="#071520" />
<circle cx="450" cy="850" r="8.4" fill="#071520" />
<circle cx="490" cy="850" r="8.4" fill="#071520" />
<circle cx="510" cy="850" r="8.4" fill="#071520" />
<circle cx="550" cy="850" r="8.4" fill="#071520" />
<circle cx="570" cy="850" r="8.4" fill="#071520" />
<circle cx="610" cy="850" r="8.4" fill="#071520" />
<circle cx="650" cy="850" r="8.4" fill="#071520" />
<circle cx="670" cy="850" r="8.4" fill="#071520" />
<circle cx="690" cy="850" r="8.4" fill="#071520" />
<circle cx="730" cy="850" r="8.4" fill="#071520" />
<circle cx="790" cy="850" r="8.4" fill="#071520" />
<circle cx="810" cy="850" r="8.4" fill="#071520" />
<circle cx="830" cy="850" r="8.4" fill="#071520" />
<circle cx="890" cy="850" r="8.4" fill="#071520" />
<circle cx="290" cy="870" r="8.4" fill="#071520" />
<circle cx="310" cy="870" r="8.4" fill="#071520" />
<circle cx="330" cy="870" r="8.4" fill="#071520" />
<circle cx="450" cy="870" r="8.4" fill="#071520" />
<circle cx="490" cy="870" r="8.4" fill="#071520" />
<circle cx="530" cy="870" r="8.4" fill="#071520" />
<circle cx="610" cy="870" r="8.4" fill="#071520" />
<circle cx="630" cy="870" r="8.4" fill="#071520" />
<circle cx="650" cy="870" r="8.4" fill="#071520" />
<circle cx="670" cy="870" r="8.4" fill="#071520" />
<circle cx="710" cy="870" r="8.4" fill="#071520" />
<circle cx="730" cy="870" r="8.4" fill="#071520" />
<circle cx="750" cy="870" r="8.4" fill="#071520" />
<circle cx="790" cy="870" r="8.4" fill="#071520" />
<circle cx="830" cy="870" r="8.4" fill="#071520" />
<circle cx="870" cy="870" r="8.4" fill="#071520" />
<circle cx="270" cy="890" r="8.4" fill="#071520" />
<circle cx="290" cy="890" r="8.4" fill="#071520" />
<circle cx="330" cy="890" r="8.4" fill="#071520" />
<circle cx="370" cy="890" r="8.4" fill="#071520" />
<circle cx="410" cy="890" r="8.4" fill="#071520" />
<circle cx="450" cy="890" r="8.4" fill="#071520" />
<circle cx="470" cy="890" r="8.4" fill="#071520" />
<circle cx="490" cy="890" r="8.4" fill="#071520" />
<circle cx="550" cy="890" r="8.4" fill="#071520" />
<circle cx="590" cy="890" r="8.4" fill="#071520" />
<circle cx="650" cy="890" r="8.4" fill="#071520" />
<circle cx="670" cy="890" r="8.4" fill="#071520" />
<circle cx="690" cy="890" r="8.4" fill="#071520" />
<circle cx="710" cy="890" r="8.4" fill="#071520" />
<circle cx="730" cy="890" r="8.4" fill="#071520" />
<circle cx="750" cy="890" r="8.4" fill="#071520" />
<circle cx="790" cy="890" r="8.4" fill="#071520" />
<circle cx="810" cy="890" r="8.4" fill="#071520" />
<circle cx="850" cy="890" r="8.4" fill="#071520" />
<circle cx="870" cy="890" r="8.4" fill="#071520" />
<circle cx="890" cy="890" r="8.4" fill="#071520" />

    
    <!-- Fondo blanco de protección para el auto central -->
    <rect x="230" y="330" width="520" height="320" rx="20" fill="#FFFFFF" stroke="#00D2FF" stroke-width="4" filter="url(#carGlow)" />
    
    <!-- Silueta e Ilustración del Chevrolet Camaro -->
    <g transform="translate(256, 368.4) scale(2.34)">
      <!-- Sombra / Difusor inferior -->
      <ellipse cx="100" cy="98" rx="88" ry="8" fill="#E2E8F0" />
      
      <!-- Chasis y Carrocería del Camaro en azul cian metálico -->
      <path d="M 22 84 L 28 66 Q 34 54 48 50 L 76 46 L 98 32 Q 106 28 126 28 L 148 30 Q 162 33 170 42 L 184 48 Q 192 56 194 66 L 196 82 Q 192 88 184 88 L 168 88 Q 164 78 152 78 Q 140 78 136 88 L 68 88 Q 64 78 52 78 Q 40 78 36 88 Z" fill="#041522" stroke="#00D2FF" stroke-width="4" />
      
      <!-- Cabina / Parabrisas y Ventanas -->
      <path d="M 82 46 L 102 34 L 142 34 L 160 44 L 142 46 Z" fill="#00D2FF" opacity="0.85" />
      <path d="M 104 36 L 138 36 L 138 45 L 88 45 Z" fill="#FFFFFF" opacity="0.6" />
      
      <!-- Cofre con toma de aire (Cowl induction del Camaro) -->
      <path d="M 46 54 L 84 50 L 80 56 L 44 58 Z" fill="#00D2FF" opacity="0.9" />
      <path d="M 44 58 L 78 56 L 76 60 L 42 62 Z" fill="#030C13" />

      <!-- Parrilla agresiva y faros LED -->
      <rect x="24" y="68" width="168" height="12" rx="4" fill="#03090F" />
      <!-- Faro LED izquierdo -->
      <path d="M 28 69 L 46 69 L 42 74 L 26 73 Z" fill="#00D2FF" />
      <circle cx="34" cy="71" r="2.5" fill="#FFFFFF" />
      <!-- Faro LED derecho -->
      <path d="M 172 69 L 154 69 L 158 74 L 174 73 Z" fill="#00D2FF" />
      <circle cx="166" cy="71" r="2.5" fill="#FFFFFF" />
      
      <!-- Logo Chevrolet Bowtie Dorado en el centro -->
      <path d="M 94 71 L 106 71 L 106 69 L 112 69 L 112 71 L 114 71 L 114 74 L 108 74 L 108 76 L 102 76 L 102 74 L 94 74 Z" fill="#F5C518" stroke="#D97706" stroke-width="0.8" />
      
      <!-- Ruedas y Rines Deportivos -->
      <!-- Rueda trasera -->
      <circle cx="152" cy="86" r="14" fill="#03080C" stroke="#00D2FF" stroke-width="2" />
      <circle cx="152" cy="86" r="8" fill="#1E293B" stroke="#F1F5F9" stroke-width="1.5" />
      <circle cx="152" cy="86" r="3" fill="#00D2FF" />
      <!-- Rueda delantera -->
      <circle cx="52" cy="86" r="14" fill="#03080C" stroke="#00D2FF" stroke-width="2" />
      <circle cx="52" cy="86" r="8" fill="#1E293B" stroke="#F1F5F9" stroke-width="1.5" />
      <circle cx="52" cy="86" r="3" fill="#00D2FF" />

      <!-- Texto Camaro debajo de la silueta -->
      <text x="100" y="112" font-family="system-ui, sans-serif" font-weight="900" font-size="14" letter-spacing="3" fill="#041522" text-anchor="middle">
        CAMARO
      </text>
    </g>
  
  </g>

  <!-- Pie de Texto Informativo -->
  <g transform="translate(490, 1028)">
    <text text-anchor="middle" font-family="system-ui, -apple-system, sans-serif" font-weight="800" font-size="14" fill="#0084C7" letter-spacing="1">
      ✨ ESCANEA PARA VER PAQUETES Y PROMOS ✨
    </text>
    <text text-anchor="middle" y="16" font-family="monospace" font-weight="600" font-size="11" fill="#64748B">
      https://car-wash-la-carpita.vercel.app/paquetes
    </text>
  </g>
</svg>
